<svg width="1676" height="630" xmlns="http://www.w3.org/2000/svg" xmlns:xlink="http://www.w3.org/1999/xlink" xml:space="preserve" overflow="hidden"><defs><clipPath id="clip0"><rect x="-244" y="-18" width="1676" height="630"/></clipPath><clipPath id="clip1"><rect x="-244" y="-18" width="1676" height="630"/></clipPath><clipPath id="clip2"><rect x="-244" y="-18" width="1675" height="630"/></clipPath></defs><g clip-path="url(#clip0)" transform="translate(244 18)"><g clip-path="url(#clip1)"><g clip-path="url(#clip2)"><path d="M863.069 976.057 888.232 976.057 888.232 774.189 863.069 774.189ZM824.888 976.057 850.341 976.057 850.341 774.189 824.888 774.189Z" fill="#AE862A" fill-rule="nonzero" fill-opacity="1" transform="matrix(1.00037 0 0 -1 -363.48 993.593)"/><path d="M0 0C-10.6574 10.3597-15.9804 27.3811-15.9804 51.062L-15.9804 156.436 9.47326 156.436 9.47326 52.2461C9.47326 35.6702 12.6825 23.6809 19.0943 16.2782 25.506 8.88459 35.5202 5.18211 49.1346 5.18211 62.7535 5.18211 72.6655 8.88459 78.884 16.2782 85.1025 23.6809 88.2073 35.7679 88.2073 52.5371L88.2073 156.436 113.661 156.436 113.661 51.062C113.661 27.9698 108.336 11.1029 97.6805 0.44548 87.0231-10.2097 70.8426-15.5418 49.1346-15.5418 27.0333-15.5418 10.6574-10.3597 0 0M-28.1198-24.4173C-45.6799-8.63231-54.4599 14.4554-54.4599 44.8457L-54.4599 156.436-29.0062 156.436-29.0062 48.9846C-29.0062 24.1264-22.5945 5.18211-9.76419-7.84135 3.05926-20.8671 22.5945-27.3743 48.8437-27.3743 75.6747-27.3743 95.3122-20.8216 107.74-7.69362 120.177 5.42758 126.389 24.3218 126.389 48.9846L126.389 156.436 151.847 156.436 151.847 44.8457C151.847 15.044 143.263-7.89363 126.096-23.9718 108.924-40.0568 83.2706-48.0982 49.1346-48.0982 15.1918-48.0982-10.5597-40.2045-28.1198-24.4173" fill="#AE862A" fill-rule="nonzero" fill-opacity="1" transform="matrix(1.00037 0 0 -1 617.757 173.971)"/><path d="M0 0 2.66606 0 78.4431-89.9801 79.9204-89.9801 154.804 0 157.768 0 157.768-165.164 132.017-165.164 132.017-59.1965 82.2865-118.986 76.077-118.986 25.1628-59.4943 25.1628-165.164 0-165.164ZM-38.4772 36.7043 16.5759 36.7043 79.034-37.293 141.192 36.7043 195.95 36.7043 195.95-165.164 170.496-165.164 170.496 15.9804 151.847 15.9804 79.034-71.0358 5.62986 15.9804-13.0189 15.9804-13.0189-165.164-38.4772-165.164Z" fill="#AE862A" fill-rule="nonzero" fill-opacity="1" transform="matrix(1.00037 0 0 -1 843.086 54.2404)"/><path d="M0 0C15.1918 0 22.7945 4.92982 22.7945 14.7963 22.7945 19.7284 21.3126 23.3309 18.3556 25.6014 15.3918 27.8675 10.8506 29.0062 4.73663 29.0062L-25.156 29.0062-25.156 0ZM-50.3188-32.5587-13.6144-32.5587C-2.36832-32.5587 6.85721-33.8451 14.0599-36.4066 21.2603-38.9772 27.5311-43.1161 32.8564-48.8368 38.1863-54.5622 43.6093-62.6581 49.1346-73.1132L73.7019-119.582 45.8799-119.582 27.2334-83.4706C22.8922-74.7883 19.042-68.3766 15.6895-64.2286 12.3325-60.0875 8.43684-57.2282 3.99795-55.6509-0.440934-54.0712-6.61174-53.2826-14.5008-53.2826L-25.156-53.2826-25.156-119.582-50.3188-119.582ZM-50.3188 49.7233 7.10495 49.7233C20.1284 49.7233 30.2403 46.7663 37.443 40.8455 44.6434 34.927 48.2482 26.8311 48.2482 16.5759 48.2482-8.28911 31.7677-20.7171-1.18416-20.7171L-50.3188-20.7171ZM-88.7959 82.2865 15.6895 82.2865C31.2768 82.2865 44.398 79.4204 55.0554 73.7019 65.7105 67.9766 73.6564 60.4307 78.884 51.0552 84.1116 41.6819 86.7254 31.6722 86.7254 21.0148 86.7254-1.68191 76.5611-18.2533 56.2395-28.7153 60.7807-30.6881 64.8696-33.6974 68.5243-37.7408 72.1745-41.7842 76.5611-48.4482 81.6978-57.7192L116.327-119.582 88.7959-119.582 58.3147-63.9377C52.5893-53.8712 46.7663-46.0799 40.8455-40.5477 34.927-35.0293 28.2152-31.2768 20.7239-29.3039L20.7239-27.2334C33.3473-25.0651 43.3115-20.083 50.6165-12.2871 57.9146-4.49116 61.5694 5.51849 61.5694 17.7601 61.5694 30.7858 57.0805 41.3387 48.0982 49.4323 39.1181 57.5192 26.3469 61.5626 9.77101 61.5626L-63.3422 61.5626-63.3422-119.582-88.7959-119.582Z" fill="#AE862A" fill-rule="nonzero" fill-opacity="1" transform="matrix(1.00037 0 0 -1 1162.88 99.8227)"/><path d="M0 0C-9.97102 2.66606-19.4875 6.75493-28.5653 12.2871L-28.5653 35.9611C-20.8671 30.0403-11.6461 25.4083-0.886414 22.0512 9.85965 18.692 20.9625 17.0237 32.4086 17.0237 48.3914 17.0237 60.9239 20.3739 70.0017 27.0833 79.0727 33.7883 83.6138 43.2593 83.6138 55.5009 83.6138 63.1945 82.3319 69.7539 79.7704 75.1838 77.2021 80.6046 72.8155 85.8844 66.5969 91.0165 60.3784 96.1463 51.3529 102.165 39.5136 109.074 27.8675 115.388 19.9807 121.257 15.8327 126.687 11.6916 132.107 9.621 138.378 9.621 145.481 9.621 153.77 12.7257 160.473 18.9443 165.609 25.156 170.735 34.0837 173.303 45.7321 173.303 54.8031 173.303 64.1786 171.821 73.8496 168.864 83.5161 165.9 92.4984 161.559 100.785 155.841L100.785 131.571C92.8916 138.274 84.307 143.56 75.0338 147.404 65.756 151.254 56.7759 153.175 48.0982 153.175 43.3638 153.175 39.8113 152.481 37.443 151.104 35.0747 149.72 33.8906 147.947 33.8906 145.779 33.8906 143.606 34.286 141.781 35.0747 140.299 35.8566 138.824 37.8385 136.992 40.9955 134.826 44.1457 132.651 48.9846 129.889 55.494 126.537 69.5085 119.432 80.3591 112.277 88.0595 105.076 95.7509 97.8737 101.128 90.3756 104.19 82.5842 107.242 74.7815 108.777 65.6583 108.777 55.2031 108.777 43.757 105.813 33.5474 99.892 24.5673 93.978 15.5872 85.3412 8.58685 73.9996 3.55247 62.6445-1.4819 49.1801-3.99113 33.5928-3.99113 21.1648-3.99113 9.95738-2.66606 0 0M-1.92738 32.2677C-12.1893 36.3043-21.0671 41.591-28.5653 48.0982L-28.5653 72.0768C-20.4784 64.3786-11.1029 58.2578-0.44548 53.7212 10.2097 49.1801 19.9807 46.914 28.8562 46.914 40.1091 46.914 45.7321 49.8778 45.7321 55.7918 45.7321 58.3533 45.0321 60.7216 43.6547 62.8967 42.2751 65.0696 39.2159 67.7288 34.4792 70.8926 29.7426 74.0451 22.349 78.2885 12.2802 83.6206-2.51605 91.5074-13.0235 100.435-19.242 110.406-25.4605 120.37-28.5653 131.964-28.5653 145.183-28.5653 156.436-25.6537 166.446-19.8307 175.23-14.0144 184.006-5.72532 190.915 5.02756 195.95 15.7804 200.982 28.2675 203.493 42.4706 203.493 53.5212 203.493 63.5877 202.407 72.6655 200.239 81.7364 198.063 91.112 194.616 100.785 189.879L100.785 166.198C93.0871 171.33 84.157 175.426 73.9996 178.485 63.8286 181.54 54.019 183.074 44.548 183.074 30.1381 183.074 18.5442 179.767 9.76419 173.155 0.984147 166.541-3.40247 157.323-3.40247 145.481-3.40247 135.614-0.840957 127.23 4.28888 120.318 9.42099 113.409 17.2101 107.004 27.672 101.083 39.1181 94.7622 47.8459 89.2891 53.8712 84.6548 59.8875 80.0159 64.0809 75.4815 66.4492 71.0358 68.8175 66.5969 70.0017 61.4217 70.0017 55.5009 70.0017 46.6185 66.5969 39.5136 59.7897 34.1883 52.9848 28.8562 43.1615 26.1969 30.3381 26.1969 19.0874 26.1969 8.33456 28.2152-1.92738 32.2677" fill="#AE862A" fill-rule="nonzero" fill-opacity="1" transform="matrix(1.00037 0 0 -1 1322.62 218.369)"/><path d="M863.069 724.123 888.232 724.123 888.232 522.255 863.069 522.255ZM824.888 724.123 850.341 724.123 850.341 522.255 824.888 522.255Z" fill="#767171" fill-rule="nonzero" fill-opacity="1" transform="matrix(1.00037 0 0 -1 -363.48 993.593)"/><path d="M0 0C-11.6393 5.92079-20.5239 14.1576-26.6379 24.715-32.7519 35.2679-35.8134 47.4527-35.8134 61.2648-35.8134 74.686-32.7519 86.8231-26.6379 97.6737-20.5239 108.524-11.5938 117.063 0.147736 123.275 11.8916 129.494 25.6537 132.598 41.441 132.598 52.6939 132.598 64.3332 131.021 76.368 127.864 88.4027 124.705 99.6534 120.268 110.108 114.547L110.108 92.9371C88.9959 105.567 66.8947 111.881 43.8093 111.881 26.0492 111.881 12.5848 107.042 3.40928 97.3828-5.77078 87.7095-10.3597 75.6679-10.3597 61.2648-10.3597 46.6617-5.77078 34.777 3.40928 25.6014 12.5848 16.4282 25.9515 11.8393 43.5115 11.8393 55.7463 11.8393 67.7356 13.5621 79.4795 17.0169 91.2165 20.4648 102.119 25.5514 112.186 32.2609L112.186 10.3597C102.908 4.23888 91.7075-0.497755 78.5863-3.85022 65.4651-7.20723 52.9848-8.88459 41.1432-8.88459 25.356-8.88459 11.6461-5.92079 0 0M-24.8582-26.4947C-41.6364-16.3305-54.2144-3.40247-62.599 12.2802-70.9904 27.9698-75.177 44.198-75.177 60.9739-75.177 80.3068-70.1494 97.9714-60.0829 113.952-50.021 129.939-36.4021 142.517-19.2352 151.693-2.07057 160.868 16.6737 165.455 37.0021 165.455 61.4671 165.455 85.8389 159.929 110.108 148.886L110.108 126.978C84.8503 138.817 61.1694 144.738 39.0727 144.738 23.0922 144.738 8.33911 141.231-5.17529 134.23-18.692 127.223-29.4971 117.357-37.5862 104.629-45.6799 91.9029-49.7233 77.3498-49.7233 60.9739-49.7233 47.1549-46.3208 33.9883-39.5136 21.4558-32.7064 8.92323-22.5945-1.28644-9.17552-9.18006 4.24342-17.0737 20.1284-21.0148 38.484-21.0148 65.5173-21.0148 90.0846-14.6099 112.186-1.77965L112.186-23.3831C88.9005-35.6247 63.64-41.7387 36.4066-41.7387 12.3325-41.7387-8.08682-36.6589-24.8582-26.4947" fill="#767171" fill-rule="nonzero" fill-opacity="1" transform="matrix(1.00037 0 0 -1 630.488 432.266)"/><path d="M0 0 99.7511 0 99.7511-21.0148 25.1628-21.0148 25.1628-42.9161 107.152-42.9161 107.152-63.64 0-63.64ZM0 73.7019 105.67 73.7019 105.67 52.6871 25.1628 52.6871 25.1628 32.5587 99.7511 32.5587 99.7511 11.8416 0 11.8416ZM-38.4772 105.967 105.67 105.967 105.67 85.2435-13.0189 85.2435-13.0189-75.1838 107.152-75.1838 107.152-95.9009-38.4772-95.9009Z" fill="#767171" fill-rule="nonzero" fill-opacity="1" transform="matrix(1.00037 0 0 -1 812.296 375.438)"/><path d="M0 0 2.66606 0 78.4385-89.9801 79.9182-89.9801 154.804 0 157.768 0 157.768-165.164 132.017-165.164 132.017-59.1965 82.2865-118.986 76.0702-118.986 25.1628-59.492 25.1628-165.164 0-165.164ZM-38.4772 36.7043 16.5759 36.7043 79.034-37.293 141.192 36.7043 195.95 36.7043 195.95-165.164 170.496-165.164 170.496 15.9804 151.847 15.9804 79.034-71.0358 5.62304 15.9804-13.0189 15.9804-13.0189-165.164-38.4772-165.164Z" fill="#767171" fill-rule="nonzero" fill-opacity="1" transform="matrix(1.00037 0 0 -1 992.913 306.175)"/><path d="M0 0 12.1325 0 12.1325-84.7275 0-84.7275 0-47.8527-47.6072-47.8527-47.6072-84.7275-59.7329-84.7275-59.7329 0-47.6072 0-47.6072-36.6339 0-36.6339Z" fill="#BE1567" fill-rule="nonzero" fill-opacity="1" transform="matrix(1.00037 0 0 -1 521.47 520.273)"/><path d="M0 0C-9.69828 0-17.6646-3.03426-23.9082-9.09597-30.1449-15.1599-33.2701-22.9036-33.2701-32.3246-33.2701-41.4614-30.1381-49.0641-23.8741-55.1258-17.6124-61.1944-9.77555-64.2218-0.368203-64.2218 9.0846-64.2218 16.9714-61.1307 23.2922-54.944 29.613-48.7596 32.7769-41.0591 32.7769-31.8404 32.7769-22.8649 29.613-15.3145 23.2922-9.18688 16.9714-3.05926 9.20734 0 0 0M-0.486391 11.5234C12.603 11.5234 23.4991 7.37542 32.2086-0.911415 40.9182-9.20052 45.2707-19.592 45.2707-32.0791 45.2707-44.573 40.8773-54.9122 32.0859-63.1036 23.299-71.2881 12.2211-75.3838-1.15234-75.3838-13.9235-75.3838-24.5605-71.2881-33.0632-63.1036-41.5705-54.9122-45.8208-44.6571-45.8208-32.3246-45.8208-19.6693-41.5387-9.20052-32.9723-0.911415-24.4059 7.37542-13.5803 11.5234-0.486391 11.5234" fill="#BE1567" fill-rule="nonzero" fill-opacity="1" transform="matrix(1.00037 0 0 -1 591.264 530.586)"/><path d="M0 0 11.5234 0 11.5234-84.7275 1.09324-84.7275-55.5531-19.4761-55.5531-84.7275-66.9538-84.7275-66.9538 0-57.1305 0 0-65.8083Z" fill="#BE1567" fill-rule="nonzero" fill-opacity="1" transform="matrix(1.00037 0 0 -1 715.713 520.273)"/><path d="M0 0 28.4425 0 28.4425-35.902C18.0056-40.4318 7.6618-42.6956-2.60697-42.6956-16.6418-42.6956-27.847-38.5999-36.2384-30.4154-44.6321-22.224-48.8232-12.1325-48.8232-0.122734-48.8232 12.5325-44.4752 23.0672-35.7861 31.4768-27.0902 39.8818-16.1941 44.0866-3.09336 44.0866 1.67509 44.0866 6.2049 43.5775 10.4892 42.541 14.7713 41.5114 20.1943 39.6227 26.7401 36.8725L26.7401 24.5014C16.635 30.3654 6.60492 33.2951-3.33882 33.2951-12.5984 33.2951-20.4012 30.1381-26.747 23.8354-33.0951 17.5283-36.2725 9.78237-36.2725 0.609125-36.2725-9.01869-33.0951-16.8805-26.747-22.9877-20.4012-29.0903-12.2348-32.1427-2.24558-32.1427 2.60697-32.1427 8.40502-31.0313 15.1599-28.8062L16.3123-28.4425 16.3123-10.7983-2.0187e-15-10.7983Z" fill="#BE1567" fill-rule="nonzero" fill-opacity="1" transform="matrix(1.00037 0 0 -1 788.082 563.273)"/><path d="M0 0 15.1599 0-21.5899-40.2114 24.1923-84.7275 7.63452-84.7275-35.6634-42.8774-35.6634-84.7275-47.7959-84.7275-47.7959 0-35.6634 0-35.6634-38.7567Z" fill="#BE1567" fill-rule="nonzero" fill-opacity="1" transform="matrix(1.00037 0 0 -1 910.492 520.273)"/><path d="M0 0C-9.69146 0-17.6624-3.03426-23.9014-9.09597-30.1449-15.1599-33.2632-22.9036-33.2632-32.3246-33.2632-41.4614-30.1312-49.0641-23.8741-55.1258-17.6124-61.1944-9.77555-64.2218-0.361384-64.2218 9.09142-64.2218 16.9782-61.1307 23.299-54.944 29.6199-48.7596 32.7769-41.0591 32.7769-31.8404 32.7769-22.8649 29.6199-15.3145 23.299-9.18688 16.9782-3.05926 9.20734 0 0 0M-0.486391 11.5234C12.603 11.5234 23.5059 7.37542 32.2155-0.911415 40.9182-9.20052 45.2707-19.592 45.2707-32.0791 45.2707-44.573 40.8796-54.9122 32.0927-63.1036 23.3059-71.2881 12.2211-75.3838-1.15234-75.3838-13.9167-75.3838-24.5537-71.2881-33.0632-63.1036-41.5637-54.9122-45.8162-44.6571-45.8162-32.3246-45.8162-19.6693-41.5387-9.20052-32.9723-0.911415-24.4059 7.37542-13.5735 11.5234-0.486391 11.5234" fill="#BE1567" fill-rule="nonzero" fill-opacity="1" transform="matrix(1.00037 0 0 -1 968.078 530.586)"/><path d="M0 0 11.5234 0 11.5234-84.7275 1.09324-84.7275-55.5531-19.4761-55.5531-84.7275-66.9538-84.7275-66.9538 0-57.1305 0 0-65.8083Z" fill="#BE1567" fill-rule="nonzero" fill-opacity="1" transform="matrix(1.00037 0 0 -1 1092.53 520.273)"/><path d="M0 0 28.4425 0 28.4425-35.902C18.0124-40.4318 7.6618-42.6956-2.60697-42.6956-16.635-42.6956-27.847-38.5999-36.2339-30.4154-44.6253-22.224-48.8164-12.1325-48.8164-0.122734-48.8164 12.5325-44.4752 23.0672-35.7793 31.4768-27.0833 39.8818-16.1873 44.0866-3.09336 44.0866 1.68191 44.0866 6.21171 43.5775 10.4938 42.541 14.7781 41.5114 20.1989 39.6227 26.747 36.8725L26.747 24.5014C16.6418 30.3654 6.61174 33.2951-3.33201 33.2951-12.5916 33.2951-20.3943 30.1381-26.7401 23.8354-33.0882 17.5283-36.2657 9.78237-36.2657 0.609125-36.2657-9.01869-33.0882-16.8805-26.7401-22.9877-20.3943-29.0903-12.228-32.1427-2.23876-32.1427 2.60697-32.1427 8.41184-31.0313 15.1668-28.8062L16.3168-28.4425 16.3168-10.7983-2.0187e-15-10.7983Z" fill="#BE1567" fill-rule="nonzero" fill-opacity="1" transform="matrix(1.00037 0 0 -1 1164.9 563.273)"/><path d="M0 0 0-46.0867-16.7259-46.0867-16.7259 30.5199-15.51 30.5199-6.92994 23.24C7.16177 11.8598 19.1261 2.80698 28.9471-3.92749 38.7681-10.6574 46.1912-15.0486 51.2188-17.101 56.2441-19.1511 61.2148-20.1739 66.1242-20.1739 72.945-20.1739 78.4181-18.2397 82.5456-14.3713 86.6799-10.5006 88.7437-5.35712 88.7437 1.05461 88.7437 5.90715 87.314 10.6892 84.4548 15.3986 81.5955 20.1102 77.5635 24.34 72.3632 28.0925L94.3803 28.0925C102.06 18.6783 105.904 8.97323 105.904-1.02279 105.904-11.5938 102.376-20.3034 95.3304-27.1561 88.28-33.9996 79.3249-37.4226 68.4607-37.4226 63.6081-37.4226 58.4192-36.5702 52.9007-34.8679 47.38-33.1655 41.0273-30.1449 33.8315-25.8151 26.6379-21.4808 16.835-14.119 4.41161-3.72066Z" fill="#BE1567" fill-rule="nonzero" fill-opacity="1" transform="matrix(1.00037 0 0 -1 1311.96 302.539)"/><path d="M0 0 0 0.865958C0 7.51179-4.08887 12.7848-12.2598 16.6873-20.4398 20.5807-31.5154 22.5354-45.498 22.5354-59.8284 22.5354-71.0608 20.6262-79.2067 16.8169-87.3527 12.9985-91.4302 7.74589-91.4302 1.04097-91.4302-5.66168-87.3527-10.9483-79.2067-14.8167-71.0608-18.6851-59.9988-20.6262-46.0162-20.6262-31.9745-20.6262-20.8012-18.7624-12.4803-15.0372-4.15933-11.3097 0-6.29581 0 0M16.4668 0.17501C16.4668-10.9211 10.6438-20.0898-0.995511-27.3425-12.6371-34.5906-27.4129-38.2203-45.323-38.2203-63.6991-38.2203-78.6317-34.5906-90.1301-27.3425-101.626-20.0898-107.379-10.6892-107.379 0.865958-107.379 12.5984-101.742 22.0103-90.4778 29.1221-79.2067 36.227-64.2741 39.7795-45.673 39.7795-27.297 39.7795-12.3507 36.1089-0.822774 28.7721 10.7006 21.4353 16.4668 11.9052 16.4668 0.17501" fill="#BE1567" fill-rule="nonzero" fill-opacity="1" transform="matrix(1.00037 0 0 -1 1401.43 395.496)"/><path d="M0 0 0-46.0867-16.7259-46.0867-16.7259 30.5199-15.51 30.5199-6.92994 23.24C7.16177 11.8598 19.1261 2.80698 28.9471-3.92749 38.7681-10.6574 46.1912-15.0486 51.2188-17.101 56.2441-19.1511 61.2148-20.1739 66.1242-20.1739 72.945-20.1739 78.4181-18.2397 82.5456-14.3713 86.6799-10.5006 88.7437-5.35712 88.7437 1.05461 88.7437 5.90715 87.314 10.6892 84.4548 15.3986 81.5955 20.1102 77.5635 24.34 72.3632 28.0925L94.3803 28.0925C102.06 18.6783 105.904 8.97323 105.904-1.02279 105.904-11.5938 102.376-20.3034 95.3304-27.1561 88.28-33.9996 79.3249-37.4226 68.4607-37.4226 63.6081-37.4226 58.4192-36.5702 52.9007-34.8679 47.38-33.1655 41.0273-30.1449 33.8315-25.8151 26.6379-21.4808 16.835-14.119 4.41161-3.72066Z" fill="#BE1567" fill-rule="nonzero" fill-opacity="1" transform="matrix(1.00037 0 0 -1 1311.96 471.151)"/><path d="M0 0 35.0883 0 0 28.0152ZM67.9425-9.79601 67.9425-16.901 0-16.901 0-30.4222-14.7327-30.4222-14.7327-16.901-54.6849-16.901-54.6849 0-14.7327 0-14.7327 51.2188-7.27996 51.2188Z" fill="#BE1567" fill-rule="nonzero" fill-opacity="1" transform="matrix(1.00037 0 0 -1 1349.93 572.079)"/><path d="M0 0-9.95056 0C-13.0712 0-15.6009-2.52969-15.6009-5.65032L-15.6009-15.5986C-15.6009-18.7215-13.0712-21.2512-9.95056-21.2512L0-21.2512C3.12063-21.2512 5.65032-18.7215 5.65032-15.5986L5.65032-5.65032C5.65032-2.52969 3.12063 0 0 0" fill="#FFFFFF" fill-rule="nonzero" fill-opacity="1" transform="matrix(1.00037 0 0 -1 282.474 350.441)"/><path d="M0 0-8.06409 0C-10.5938 0-12.6439-2.05012-12.6439-4.5798L-12.6439-12.6439C-12.6439-15.1736-10.5938-17.2237-8.06409-17.2237L0-17.2237C2.52969-17.2237 4.5798-15.1736 4.5798-12.6439L4.5798-4.5798C4.5798-2.05012 2.52969 0 0 0" fill="#FFFFFF" fill-rule="nonzero" fill-opacity="1" transform="matrix(1.00037 0 0 -1 310.645 381.66)"/><path d="M0 0-11.8916 0C-15.6191 0-18.6442-3.0229-18.6442-6.75265L-18.6442-18.6442C-18.6442-22.374-15.6191-25.3969-11.8916-25.3969L0-25.3969C3.72976-25.3969 6.75265-22.374 6.75265-18.6442L6.75265-6.75265C6.75265-3.0229 3.72976 0 0 0" fill="#FFFFFF" fill-rule="nonzero" fill-opacity="1" transform="matrix(1.00037 0 0 -1 312.558 319.221)"/><path d="M0 0-11.8916 0C-15.6191 0-18.6442-3.0229-18.6442-6.75265L-18.6442-18.6442C-18.6442-22.374-15.6191-25.3969-11.8916-25.3969L0-25.3969C3.72976-25.3969 6.75265-22.374 6.75265-18.6442L6.75265-6.75265C6.75265-3.0229 3.72976 0 0 0" fill="#FFFFFF" fill-rule="nonzero" fill-opacity="1" transform="matrix(1.00037 0 0 -1 255.023 319.221)"/><path d="M0 0-11.8916 0C-15.6191 0-18.6442-3.0229-18.6442-6.75265L-18.6442-18.6442C-18.6442-22.374-15.6191-25.3969-11.8916-25.3969L0-25.3969C3.72976-25.3969 6.75265-22.374 6.75265-18.6442L6.75265-6.75265C6.75265-3.0229 3.72976 0 0 0" fill="#FFFFFF" fill-rule="nonzero" fill-opacity="1" transform="matrix(1.00037 0 0 -1 198.048 319.221)"/><path d="M0 0-9.95056 0C-13.0712 0-15.6009-2.52969-15.6009-5.65032L-15.6009-15.5986C-15.6009-18.7215-13.0712-21.2512-9.95056-21.2512L0-21.2512C3.12063-21.2512 5.65032-18.7215 5.65032-15.5986L5.65032-5.65032C5.65032-2.52969 3.12063 0 0 0" fill="#FFFFFF" fill-rule="nonzero" fill-opacity="1" transform="matrix(1.00037 0 0 -1 225.676 350.441)"/><path d="M0 0-9.95056 0C-13.0712 0-15.6009-2.52969-15.6009-5.65032L-15.6009-15.5986C-15.6009-18.7215-13.0712-21.2512-9.95056-21.2512L0-21.2512C3.12063-21.2512 5.65032-18.7215 5.65032-15.5986L5.65032-5.65032C5.65032-2.52969 3.12063 0 0 0" fill="#FFFFFF" fill-rule="nonzero" fill-opacity="1" transform="matrix(1.00037 0 0 -1 169.016 350.441)"/><path d="M0 0-8.06409 0C-10.5938 0-12.6439-2.05012-12.6439-4.5798L-12.6439-12.6439C-12.6439-15.1736-10.5938-17.2237-8.06409-17.2237L0-17.2237C2.52969-17.2237 4.5798-15.1736 4.5798-12.6439L4.5798-4.5798C4.5798-2.05012 2.52969 0 0 0" fill="#FFFFFF" fill-rule="nonzero" fill-opacity="1" transform="matrix(1.00037 0 0 -1 253.108 381.66)"/><path d="M0 0-8.06409 0C-10.5938 0-12.6439-2.05012-12.6439-4.5798L-12.6439-12.6439C-12.6439-15.1736-10.5938-17.2237-8.06409-17.2237L0-17.2237C2.52969-17.2237 4.5798-15.1736 4.5798-12.6439L4.5798-4.5798C4.5798-2.05012 2.52969 0 0 0" fill="#FFFFFF" fill-rule="nonzero" fill-opacity="1" transform="matrix(1.00037 0 0 -1 196.134 381.66)"/><path d="M0 0C0 0.06364 0.0136371 0.120461 0.0113643 0.184101-4.72072 157.563-133.789 283.696-292.317 283.696-419.253 283.696-527.237 202.809-567.673 89.7778-571.432 79.2681-557.909 71.2995-550.661 79.7886-512.329 124.693-452.437 153.59-385.11 153.59-346.915 153.59-311.111 144.283-280.273 128.037-241.407 104.151-233.395 65.2037-232.629-1.85465-232.529-10.7733-220.172-13.3235-215.828 0.384113-209.155 21.4398-204.055 38.6954-200.589 53.3189-186.449 29.4812-177.701 2.60242-175.889-25.9742-175.862-26.4106-175.753-26.8174-175.674-27.2356L-175.674-41.1728C-175.674-45.7049-172.001-49.3778-167.469-49.3778L-153.02-49.3778C-148.488-49.3778-144.815-45.7049-144.815-41.1728L-144.815-32.1745-119.036-28.0129-119.036-37.9999C-119.036-42.5319-115.363-46.2049-110.831-46.2049L-96.3827-46.2049C-91.8506-46.2049-88.1754-42.5319-88.1754-37.9999L-88.1754-23.5513C-88.1754-23.3741-88.2163-23.2104-88.2277-23.0377L-62.2444-18.842C-62.2467-18.8897-62.2603-18.9329-62.2603-18.9806L-62.2603-33.4292C-62.2603-37.9612-58.5851-41.6364-54.0531-41.6364L-39.6045-41.6364C-35.0724-41.6364-31.3995-37.9612-31.3995-33.4292L-31.3995-24.5196C-29.8744-25.5764-28.0289-26.206-26.0333-26.206L-9.41871-26.206C-4.20933-26.206 0.01591-21.9808 0.01591-16.7691L0.01591-0.154554C0.01591-0.102279 0.00227286-0.0522757 0 0" fill="#FFFFFF" fill-rule="nonzero" fill-opacity="1" transform="matrix(1.00037 0 0 -1 324.344 267.501)"/><path d="M0 0-9.95056 0C-13.0712 0-15.6009-2.52969-15.6009-5.65032L-15.6009-15.5986C-15.6009-18.7215-13.0712-21.2512-9.95056-21.2512L0-21.2512C3.12063-21.2512 5.65032-18.7215 5.65032-15.5986L5.65032-5.65032C5.65032-2.52969 3.12063 0 0 0" fill="#AE862A" fill-rule="nonzero" fill-opacity="1" transform="matrix(1.00037 0 0 -1 282.474 350.441)"/><path d="M0 0-8.06409 0C-10.5938 0-12.6439-2.05012-12.6439-4.5798L-12.6439-12.6439C-12.6439-15.1736-10.5938-17.2237-8.06409-17.2237L0-17.2237C2.52969-17.2237 4.5798-15.1736 4.5798-12.6439L4.5798-4.5798C4.5798-2.05012 2.52969 0 0 0" fill="#AE862A" fill-rule="nonzero" fill-opacity="1" transform="matrix(1.00037 0 0 -1 310.645 381.66)"/><path d="M0 0-11.8916 0C-15.6191 0-18.6442-3.0229-18.6442-6.75265L-18.6442-18.6442C-18.6442-22.374-15.6191-25.3969-11.8916-25.3969L0-25.3969C3.72976-25.3969 6.75265-22.374 6.75265-18.6442L6.75265-6.75265C6.75265-3.0229 3.72976 0 0 0" fill="#AE862A" fill-rule="nonzero" fill-opacity="1" transform="matrix(1.00037 0 0 -1 312.558 319.221)"/><path d="M0 0-11.8916 0C-15.6191 0-18.6442-3.0229-18.6442-6.75265L-18.6442-18.6442C-18.6442-22.374-15.6191-25.3969-11.8916-25.3969L0-25.3969C3.72976-25.3969 6.75265-22.374 6.75265-18.6442L6.75265-6.75265C6.75265-3.0229 3.72976 0 0 0" fill="#AE862A" fill-rule="nonzero" fill-opacity="1" transform="matrix(1.00037 0 0 -1 255.023 319.221)"/><path d="M0 0-11.8916 0C-15.6191 0-18.6442-3.0229-18.6442-6.75265L-18.6442-18.6442C-18.6442-22.374-15.6191-25.3969-11.8916-25.3969L0-25.3969C3.72976-25.3969 6.75265-22.374 6.75265-18.6442L6.75265-6.75265C6.75265-3.0229 3.72976 0 0 0" fill="#AE862A" fill-rule="nonzero" fill-opacity="1" transform="matrix(1.00037 0 0 -1 198.048 319.221)"/><path d="M0 0-9.95056 0C-13.0712 0-15.6009-2.52969-15.6009-5.65032L-15.6009-15.5986C-15.6009-18.7215-13.0712-21.2512-9.95056-21.2512L0-21.2512C3.12063-21.2512 5.65032-18.7215 5.65032-15.5986L5.65032-5.65032C5.65032-2.52969 3.12063 0 0 0" fill="#AE862A" fill-rule="nonzero" fill-opacity="1" transform="matrix(1.00037 0 0 -1 225.676 350.441)"/><path d="M0 0-9.95056 0C-13.0712 0-15.6009-2.52969-15.6009-5.65032L-15.6009-15.5986C-15.6009-18.7215-13.0712-21.2512-9.95056-21.2512L0-21.2512C3.12063-21.2512 5.65032-18.7215 5.65032-15.5986L5.65032-5.65032C5.65032-2.52969 3.12063 0 0 0" fill="#AE862A" fill-rule="nonzero" fill-opacity="1" transform="matrix(1.00037 0 0 -1 169.016 350.441)"/><path d="M0 0-8.06409 0C-10.5938 0-12.6439-2.05012-12.6439-4.5798L-12.6439-12.6439C-12.6439-15.1736-10.5938-17.2237-8.06409-17.2237L0-17.2237C2.52969-17.2237 4.5798-15.1736 4.5798-12.6439L4.5798-4.5798C4.5798-2.05012 2.52969 0 0 0" fill="#AE862A" fill-rule="nonzero" fill-opacity="1" transform="matrix(1.00037 0 0 -1 253.108 381.66)"/><path d="M0 0-8.06409 0C-10.5938 0-12.6439-2.05012-12.6439-4.5798L-12.6439-12.6439C-12.6439-15.1736-10.5938-17.2237-8.06409-17.2237L0-17.2237C2.52969-17.2237 4.5798-15.1736 4.5798-12.6439L4.5798-4.5798C4.5798-2.05012 2.52969 0 0 0" fill="#AE862A" fill-rule="nonzero" fill-opacity="1" transform="matrix(1.00037 0 0 -1 196.134 381.66)"/><path d="M0 0C0-3.12063-2.52969-5.65032-5.65032-5.65032L-15.6009-5.65032C-18.7215-5.65032-21.2512-3.12063-21.2512 0L-21.2512 9.95056C-21.2512 13.0712-18.7215 15.6009-15.6009 15.6009L-5.65032 15.6009C-2.52969 15.6009 0 13.0712 0 9.95056ZM-56.7759 0C-56.7759-3.12063-59.3056-5.65032-62.4263-5.65032L-72.3768-5.65032C-75.4974-5.65032-78.0271-3.12063-78.0271 0L-78.0271 9.95056C-78.0271 13.0712-75.4974 15.6009-72.3768 15.6009L-62.4263 15.6009C-59.3056 15.6009-56.7759 13.0712-56.7759 9.95056ZM-113.416 0C-113.416-3.12063-115.945-5.65032-119.066-5.65032L-129.014-5.65032C-132.137-5.65032-134.667-3.12063-134.667 0L-134.667 9.95056C-134.667 13.0712-132.137 15.6009-129.014 15.6009L-119.066 15.6009C-115.945 15.6009-113.416 13.0712-113.416 9.95056ZM36.2043 4.72754C36.2043 4.78891 36.218 4.848 36.2157 4.90937 31.4836 162.291-97.5851 288.421-256.114 288.421-383.049 288.421-491.035 207.534-531.469 94.5053-535.228 83.9957-521.704 76.0248-514.459 84.5139-476.125 129.419-416.233 158.318-348.908 158.318-310.711 158.318-274.909 149.011-244.068 132.764-205.202 108.879-197.191 69.9312-196.425 2.87062-196.325-6.04807-183.967-8.59594-179.624 5.11165-172.951 26.1651-167.85 43.4229-164.384 58.0465-150.245 34.2065-141.497 7.32996-139.685-21.2489-139.658-21.6853-139.549-22.0899-139.469-22.5081L-139.469-36.4452C-139.469-40.9796-135.796-44.6525-131.264-44.6525L-116.816-44.6525C-112.284-44.6525-108.611-40.9796-108.611-36.4452L-108.611-27.447-82.832-23.2854-82.832-33.2746C-82.832-37.8044-79.159-41.4796-74.6269-41.4796L-60.1784-41.4796C-55.6463-41.4796-51.9734-37.8044-51.9734-33.2746L-51.9734-18.8238C-51.9734-18.6488-52.0143-18.4851-52.0234-18.3124L-26.0401-14.1167C-26.0424-14.1622-26.056-14.2076-26.056-14.2531L-26.056-28.7039C-26.056-33.2337-22.3808-36.9089-17.8487-36.9089L-3.40019-36.9089C1.13188-36.9089 4.80482-33.2337 4.80482-28.7039L4.80482-19.792C6.3299-20.8512 8.17546-21.4785 10.171-21.4785L26.7856-21.4785C31.995-21.4785 36.2202-17.2532 36.2202-12.0416L36.2202 4.57071C36.2202 4.62526 36.2043 4.67299 36.2043 4.72754" fill="#AE862A" fill-rule="nonzero" fill-opacity="1" transform="matrix(1.00037 0 0 -1 288.126 272.228)"/><path d="M0 0C-38.334-44.9071-98.226-73.8042-165.55-73.8042-203.748-73.8042-239.552-64.4968-270.39-48.2505-309.256-24.3627-317.268 14.5826-318.032 81.641-318.134 90.5619-330.489 93.1098-334.835 79.4022-341.506 58.3488-346.606 41.091-350.074 26.4674-364.214 50.3074-372.962 77.1839-374.773 105.761-374.801 106.197-374.908 106.606-374.987 107.022L-374.987 120.961C-374.987 125.491-378.662 129.166-383.192 129.166L-397.643 129.166C-402.175 129.166-405.848 125.491-405.848 120.961L-405.848 111.961-431.624 107.799-431.624 117.788C-431.624 122.318-435.3 125.993-439.832 125.993L-454.28 125.993C-458.812 125.993-462.485 122.318-462.485 117.788L-462.485 103.338C-462.485 103.163-462.444 102.999-462.433 102.824L-488.416 98.6283C-488.416 98.676-488.403 98.7192-488.403 98.767L-488.403 113.215C-488.403 117.748-492.076 121.423-496.608 121.423L-511.056 121.423C-515.588 121.423-519.263 117.748-519.263 113.215L-519.263 104.306C-520.786 105.363-522.632 105.992-524.627 105.992L-541.242 105.992C-546.454 105.992-550.679 101.767-550.679 96.5555L-550.679 79.9432C-550.679 79.8886-550.663 79.8386-550.663 79.7863-550.661 79.7227-550.674 79.6659-550.672 79.6022-545.942-77.7771-416.874-203.907-258.344-203.907-131.41-203.907-23.4241-123.023 17.0101-9.99147 20.7694 0.518211 7.24586 8.48912 0 0" fill="#FFFFFF" fill-rule="nonzero" fill-opacity="1" transform="matrix(1.00037 0 0 -1 306.695 439.058)"/><path d="M0 0 9.95056 0C13.0712 0 15.6009 2.52969 15.6009 5.65032L15.6009 15.5986C15.6009 18.7215 13.0712 21.2512 9.95056 21.2512L0 21.2512C-3.12063 21.2512-5.65032 18.7215-5.65032 15.5986L-5.65032 5.65032C-5.65032 2.52969-3.12063 0 0 0" fill="#BE1567" fill-rule="nonzero" fill-opacity="1" transform="matrix(1.00037 0 0 -1 -202.302 276.331)"/><path d="M0 0 8.06409 0C10.5938 0 12.6439 2.05012 12.6439 4.5798L12.6439 12.6462C12.6439 15.1736 10.5938 17.226 8.06409 17.226L0 17.226C-2.52969 17.226-4.5798 15.1736-4.5798 12.6462L-4.5798 4.5798C-4.5798 2.05012-2.52969 0 0 0" fill="#BE1567" fill-rule="nonzero" fill-opacity="1" transform="matrix(1.00037 0 0 -1 -230.473 245.113)"/><path d="M0 0 11.8916 0C15.6191 0 18.6442 3.0229 18.6442 6.75265L18.6442 18.6442C18.6442 22.374 15.6191 25.3969 11.8916 25.3969L0 25.3969C-3.72976 25.3969-6.75265 22.374-6.75265 18.6442L-6.75265 6.75265C-6.75265 3.0229-3.72976 0 0 0" fill="#BE1567" fill-rule="nonzero" fill-opacity="1" transform="matrix(1.00037 0 0 -1 -232.387 307.551)"/><path d="M0 0 11.8916 0C15.6191 0 18.6442 3.0229 18.6442 6.75265L18.6442 18.6442C18.6442 22.374 15.6191 25.3969 11.8916 25.3969L0 25.3969C-3.72976 25.3969-6.75265 22.374-6.75265 18.6442L-6.75265 6.75265C-6.75265 3.0229-3.72976 0 0 0" fill="#BE1567" fill-rule="nonzero" fill-opacity="1" transform="matrix(1.00037 0 0 -1 -174.851 307.551)"/><path d="M0 0 11.8916 0C15.6191 0 18.6442 3.0229 18.6442 6.75265L18.6442 18.6442C18.6442 22.374 15.6191 25.3969 11.8916 25.3969L0 25.3969C-3.72976 25.3969-6.75265 22.374-6.75265 18.6442L-6.75265 6.75265C-6.75265 3.0229-3.72976 0 0 0" fill="#BE1567" fill-rule="nonzero" fill-opacity="1" transform="matrix(1.00037 0 0 -1 -117.876 307.551)"/><path d="M0 0 9.95056 0C13.0712 0 15.6009 2.52969 15.6009 5.65032L15.6009 15.5986C15.6009 18.7215 13.0712 21.2512 9.95056 21.2512L0 21.2512C-3.12063 21.2512-5.65032 18.7215-5.65032 15.5986L-5.65032 5.65032C-5.65032 2.52969-3.12063 0 0 0" fill="#BE1567" fill-rule="nonzero" fill-opacity="1" transform="matrix(1.00037 0 0 -1 -145.504 276.331)"/><path d="M0 0 9.95056 0C13.0712 0 15.6009 2.52969 15.6009 5.65032L15.6009 15.5986C15.6009 18.7215 13.0712 21.2512 9.95056 21.2512L0 21.2512C-3.12063 21.2512-5.65032 18.7215-5.65032 15.5986L-5.65032 5.65032C-5.65032 2.52969-3.12063 0 0 0" fill="#BE1567" fill-rule="nonzero" fill-opacity="1" transform="matrix(1.00037 0 0 -1 -88.8449 276.331)"/><path d="M0 0 8.06409 0C10.5938 0 12.6439 2.05012 12.6439 4.5798L12.6439 12.6462C12.6439 15.1736 10.5938 17.226 8.06409 17.226L0 17.226C-2.52969 17.226-4.5798 15.1736-4.5798 12.6462L-4.5798 4.5798C-4.5798 2.05012-2.52969 0 0 0" fill="#BE1567" fill-rule="nonzero" fill-opacity="1" transform="matrix(1.00037 0 0 -1 -172.937 245.113)"/><path d="M0 0 8.06409 0C10.5938 0 12.6439 2.05012 12.6439 4.5798L12.6439 12.6462C12.6439 15.1736 10.5938 17.226 8.06409 17.226L0 17.226C-2.52969 17.226-4.5798 15.1736-4.5798 12.6462L-4.5798 4.5798C-4.5798 2.05012-2.52969 0 0 0" fill="#BE1567" fill-rule="nonzero" fill-opacity="1" transform="matrix(1.00037 0 0 -1 -115.962 245.113)"/><path d="M0 0 0.0250014 0 0.0250014 0.00227286Z" fill="#BE1567" fill-rule="nonzero" fill-opacity="1" transform="matrix(1.00037 0 0 -1 165.071 610.781)"/><path d="M0 0 0-0.109097 0.506847-0.109097 0.50912 0.297744Z" fill="#BE1567" fill-rule="nonzero" fill-opacity="1" transform="matrix(1.00037 0 0 -1 173.87 557.541)"/><path d="M0 0C0-3.12063-2.52969-5.65032-5.65032-5.65032L-15.6009-5.65032C-18.7215-5.65032-21.2512-3.12063-21.2512 0L-21.2512 9.95056C-21.2512 13.0689-18.7215 15.5986-15.6009 15.5986L-5.65032 15.5986C-2.52969 15.5986 0 13.0689 0 9.95056ZM-56.6373 0C-56.6373-3.12063-59.167-5.65032-62.2876-5.65032L-72.2382-5.65032C-75.3588-5.65032-77.8885-3.12063-77.8885 0L-77.8885 9.95056C-77.8885 13.0689-75.3588 15.5986-72.2382 15.5986L-62.2876 15.5986C-59.167 15.5986-56.6373 13.0689-56.6373 9.95056ZM-113.416 0C-113.416-3.12063-115.945-5.65032-119.066-5.65032L-129.016-5.65032C-132.137-5.65032-134.667-3.12063-134.667 0L-134.667 9.95056C-134.667 13.0689-132.137 15.5986-129.016 15.5986L-119.066 15.5986C-115.945 15.5986-113.416 13.0689-113.416 9.95056ZM379.792-74.5633C341.458-119.47 281.566-148.367 214.242-148.367 176.044-148.367 140.242-139.06 109.402-122.814 70.5358-98.926 62.524-59.9807 61.7603 7.07767 61.658 15.9964 49.3028 18.5465 44.9571 4.83891 38.2863-16.2168 33.186-33.4723 29.7176-48.0959 15.5782-24.2559 6.82993 2.6206 5.01847 31.1972 4.99119 31.6336 4.88437 32.0427 4.80482 32.4587L4.80482 46.3958C4.80482 50.9279 1.12961 54.6008-3.40019 54.6008L-17.851 54.6008C-22.3808 54.6008-26.056 50.9279-26.056 46.3958L-26.056 37.3976-51.8325 33.236-51.8325 43.2229C-51.8325 47.755-55.5077 51.4302-60.0398 51.4302L-74.4883 51.4302C-79.0204 51.4302-82.6933 47.755-82.6933 43.2229L-82.6933 28.7744C-82.6933 28.5971-82.6524 28.4357-82.641 28.2607L-108.624 24.065C-108.624 24.1127-108.611 24.1559-108.611 24.2036L-108.611 38.6522C-108.611 43.1843-112.284 46.8595-116.816 46.8595L-131.264 46.8595C-135.796 46.8595-139.472 43.1843-139.472 38.6522L-139.472 29.7426C-140.994 30.7995-142.84 31.4291-144.835 31.4291L-161.45 31.4291C-166.662 31.4291-170.885 27.2038-170.885 21.9922L-170.885 5.37758C-170.885 5.3253-170.871 5.2753-170.871 5.22302-170.869 5.15938-170.882 5.10256-170.88 5.03892-168.43-76.5089-132.542-149.608-76.5225-201.177-76.0702-200.43-75.6043-199.775-75.1156-199.411-72.5586-197.491-70.9586-196.532-69.9994-195.572-69.0403-194.613-68.7198-191.524-65.8424-192.75-62.9649-193.975-61.3603-195.254-59.7647-196.213-58.1692-197.173-57.5283-198.132-55.61-198.132-53.6917-198.132-54.0121-196.213-51.4529-198.452-48.8959-200.689-52.6416-200.589-48.3709-202.077-44.0979-203.568-46.839-200.545-43.4593-202.077-42.3251-202.591-41.1682-203.114-40.0727-203.609L-31.9882-203.568-26.306-203.555-25.8651-203.555-25.8401-196.004-27.9107-195.436-32.936-193.459-37.7203-190.961-43.1138-187.595-48.3709-184.099-48.3596-183.049-34.577-183.119-34.0337-183.642 7.98227-183.842 8.23683-183.324 21.758-183.388 21.758-184.42 17.8783-188.204 13.4599-191.136 8.74368-193.586 3.77521-195.52 0.0840957-196.52 0.0840957-199.618 18.4147-199.65 18.442-199.725 18.4692-204.248 19.4693-204.252 19.4693-204.25 19.4738-204.205 19.517-204.207 19.5147-204.252 21.1921-204.255 21.1967-204.212 21.2421-204.212 21.2398-204.255 22.9331-204.262 22.9354-204.255 23.0149-204.255 21.7921-243.602 28.1607-243.602 28.5971-156.479 28.6266-156.082 28.688-155.679 29.0085-155.679 29.0926-138.324 29.1244-137.849 29.1698-137.48 29.1857-137.365 29.5403-137.365 29.5449-137.365 29.9153-130.378 29.9449-129.891 30.3131-125.928 30.3608-125.553 30.3767-125.428 31.6472-120.745 33.0541-118.148 33.0564-117.309 33.0564-117.213 33.0587-117.207 33.0587-116.875 33.1223-116.434 33.2178-115.995 33.3496-115.563 33.511-115.138 33.7019-114.722 33.9224-114.322 34.1724-113.929 34.4519-113.554 34.7588-113.195 35.0883-112.85 35.4452-112.527 35.8248-112.22 35.8225-112.318 35.5861-112.67 35.4929-112.829 35.8134-112.568 35.8134-112.67 35.5793-113.018 35.4543-113.225 35.8088-112.94 35.8066-113.038 35.5725-113.391 35.4634-113.57 35.7998-113.3 35.7975-113.395 35.5656-113.745 35.4202-113.988 35.7929-113.688 35.7907-113.784 35.5566-114.134 35.4384-114.331 35.7884-114.052 35.7838-114.15 35.552-114.495 35.4361-114.688 35.7747-114.416 35.7725-114.513 35.5406-114.859 35.3293-115.216 35.1406-115.579 34.9702-115.952 34.8224-116.332 34.6951-116.716 34.6497-116.884 36.5657-116.891 36.5862-116.129 36.5634-116.129 36.5634-114.913 36.5589-113.445 36.5566-112.49 36.5521-111.934 36.8271-111.934 36.8316-112.109 36.8339-112.306 36.8384-112.534 36.8407-112.786 36.843-113.068 36.8453-113.37 36.8475-113.697 36.8498-114.05 36.8521-114.42 36.8521-114.57 37.543-114.575 37.543-114.531 37.5408-113.447 37.5385-113.118 37.5339-112.493 37.5317-112.206 37.5294-111.936 37.8044-111.938 37.809-112.111 37.8135-112.309 37.818-112.536 37.8226-112.79 37.8271-113.068 37.8271-113.375 37.8317-113.702 37.834-114.052 37.834-114.422 37.834-114.577 38.5908-114.579 38.5863-114.161 38.5863-113.454 38.5795-112.802 38.5772-112.497 38.5726-112.213 38.5704-111.943 38.8454-111.943 38.8499-112.115 38.8567-112.315 38.8613-112.54 38.8658-112.795 38.8727-113.075 38.8749-113.379 38.8795-113.706 38.8817-114.059 38.8863-114.427 38.8886-114.579 39.6045-114.584 39.6022-114.168 39.6-113.459 39.5954-113.125 39.5931-112.806 39.5909-112.502 39.5863-112.218 39.5818-111.947 39.8568-111.95 39.8659-112.12 39.8727-112.318 39.8773-112.545 39.8841-112.8 39.8886-113.081 39.8954-113.386 39.8977-113.713 39.9023-114.063 39.9045-114.434 39.9045-114.584 40.7159-114.591 40.7137-114.172 40.7091-113.811 40.7068-113.463 40.7023-113.131 40.7-112.811 40.6932-112.509 40.6887-112.22 40.6841-111.954 40.9591-111.954 40.9682-112.125 40.9773-112.325 40.9841-112.552 40.991-112.804 40.9978-113.084 41.0023-113.391 41.0091-113.718 41.0137-114.068 41.0182-114.438 41.0182-114.593 41.7615-114.593 41.7615-114.552 41.7592-114.179 41.7501-113.816 41.7501-113.47 41.7455-113.134 41.741-112.815 41.7365-112.513 41.7296-112.227 41.7251-111.959 42.0001-111.961 42.0092-112.131 42.0183-112.329 42.0274-112.556 42.0365-112.811 42.0433-113.09 42.0501-113.393 42.0546-113.722 42.0637-114.072 42.0683-114.445 42.0706-114.595 42.8138-114.6 42.8138-114.554 42.8092-114.181 42.8047-113.818 42.8001-113.472 42.7956-113.138 42.7911-112.82 42.7842-112.518 42.7774-112.231 42.7706-111.961 43.0456-111.961 43.057-112.136 43.0683-112.334 43.0774-112.561 43.0865-112.815 43.0956-113.095 43.1024-113.397 43.1093-113.727 43.1183-114.077 43.1229-114.447 43.1274-114.836 43.132-115.245 43.1343-115.663 43.2047-115.663 43.2093-116.813 44.7116-116.818 44.6684-116.654 44.5412-116.27 44.3911-115.888 44.2207-115.516 44.0298-115.147 43.8161-114.791 43.5843-114.443 43.5911-114.345 43.9661-114.65 43.9866-114.67 43.8434-114.427 43.6093-114.077 43.6161-113.981 43.9934-114.286 44.0207-114.311 43.8752-114.066 43.6411-113.713 43.6479-113.618 44.0229-113.92 44.0843-113.977 43.9048-113.677 43.6707-113.322 43.6775-113.227 44.0548-113.534 44.0684-113.545 43.932-113.318 43.6979-112.965 43.707-112.868 44.0843-113.175 44.1161-113.204 43.9661-112.947 43.7275-112.595 43.7366-112.495 44.1093-112.8 43.9888-112.6 43.7547-112.247 43.7616-112.147 44.1411-112.456 44.5002-112.786 44.8298-113.131 45.1366-113.495 45.4185-113.875 45.6685-114.268 45.8912-114.672 46.0821-115.088 46.2435-115.513 46.3731-115.947 46.4708-116.386 46.5367-116.827 46.6345-116.829 46.639-118.1 48.0823-120.686 49.3846-125.364 49.7664-129.326 50.2051-137.303 50.2597-137.303 50.6119-137.303 50.737-155.632 51.1483-155.634 51.5666-215.464 61.1739-215.464 61.2398-196.686 61.3376-196.686 61.3376-196.082 61.7558-195.436 61.7785-187.774 61.9171-187.774 61.9194-187.256 62.4604-187.029 62.4785-180.381 62.6558-180.381 62.6581-179.999 63.1672-179.81 63.1695-177.717 63.3877-177.717 63.3877-177.53 63.8127-177.185 63.8195-174.117 64.5468-174.105 65.6014-171.576 71.7472-171.592 72.7609-174.121 73.4519-174.135 73.4973-177.078 73.4996-177.221 73.8746-177.544 73.8769-177.896 74.1201-177.896 74.1315-179.835 74.5747-180.01 74.5769-180.551 74.8179-180.551 74.8588-187.051 75.2997-187.247 75.3043-187.877 75.5384-187.877 75.5861-195.575 75.8816-196.047 75.8861-196.709 76.1134-196.709 76.1702-204.893 76.1702-204.9 76.2111-211.012 83.2138-211.012 83.2115-204.621 85.6957-204.609 86.1867-204.373 86.6322-204.373 86.6322-203.543 87.5845-203.489 87.6618-203.432 88.1754-203.43 88.1754-202.086 88.6436-201.809 88.7573-201.807 88.7573-200.8 91.0915-197.111 91.0642-194.218 91.3029-193.977 91.3756-179.331 92.7484-179.317 92.6757-193.938 92.9507-194.159 92.978-197.059 95.8509-200.725 95.8509-201.766 96.5714-201.761 96.5736-203.391 97.7828-203.384 97.7828-203.475 98.1533-203.493 98.1533-204.321 100.387-204.309 100.387-204.546 101.79-204.605 101.819-238.707 111.043-238.707 111.399-176.465 128.464-176.221 128.903-257.54 138.742-257.54 138.742-256.349 138.742-255.642 138.742-254.267 138.742-253.412 138.746-252.187 138.746-251.235 138.721-251.235 138.721-251.178 138.721-250.848 138.746-250.789 138.746-250.107 138.746-250.073 138.746-249.991 138.746-249.966 138.746-248.587 138.746-247.689 138.746-246.353 138.746-245.607 138.746-244.121 138.746-243.527 138.746-241.889 138.746-241.448 138.746-239.659 138.746-239.366 138.746-237.434 138.919-237.434 138.919-237.036 138.742-237.034 138.746-237.034 138.746-237.029 138.746-234.87 138.746-234.834 138.746-234.763 138.746-234.752 138.746-232.65 138.746-232.538 138.749-230.245 138.749-227.949 138.749-225.656 138.749-223.954 138.749-223.926 138.749-223.76 138.749-223.724 138.749-223.494 138.749-223.363 138.724-223.319 138.724-222.988 138.724-222.967 138.724-222.931 138.746-222.922 138.749-222.919 138.749-221.413 138.915-221.41 138.915-220.862 138.915-218.474 138.915-216.085 138.915-213.696 138.919-211.923 138.919-211.867 138.919-211.644 138.919-211.58 138.919-211.546 138.919-211.489 138.919-211.439 138.919-211.307 138.901-211.251 138.919-211.251 138.919-210.432 138.919-209.162 139.978-209.146 139.985-209.162 140.026-209.162 140.026-209.146 141.656-209.125 141.663-209.162 141.749-209.162 141.749-210.146 145.347-208.748 146.301-208.257 146.433-208.257 147.454-208.241 147.458-208.241 147.465-208.241 147.47-208.241 147.502-208.241 147.617-208.239 148.415-208.705 152.377-210.432 152.963-210.432 152.963-210.221 152.918-210.198 152.845-210.166 152.845-207.703 152.815-207.703 152.168-207.648 151.674-207.571 151.372-207.478 151.284-207.373 151.284-205.503 151.415-205.387 151.763-205.273 152.304-205.173 153.002-205.093 153.809-205.037 154.563-205.012 162.3-204.893 163.052-204.898 163.827-204.93 164.473-204.989 164.941-205.073 165.205-205.178 165.243-205.291 165.243-207.178 165.055-207.287 164.659-207.391 164.087-207.482 163.659-207.523 163.659-208.353 164.009-208.496 165.734-209.205 165.734-208.978 165.866-208.803 167.875-208.778 168.644-208.766 168.644-210.391 168.7-210.416 168.7-210.494 168.7-210.507 168.7-210.555 168.7-210.887 168.644-210.948 168.644-211.166 168.641-211.357 168.641-211.444 168.641-211.514 168.641-211.571 168.641-213.371 168.641-215.796 168.641-218.221 168.639-220.647 168.639-221.203 169.214-221.201 169.214-221.283 169.214-222.615 169.303-222.651 169.298-222.744 169.298-222.774 169.298-223.133 169.214-223.179 169.214-223.251 169.214-223.397 169.214-223.419 169.214-223.747 169.214-223.779 169.214-223.915 169.212-225.508 169.212-227.836 169.212-230.168 169.212-232.495 169.21-234.825 169.21-236.945 169.296-236.982 169.296-237.025 169.296-237.054 169.296-237.457 169.296-237.466 169.21-237.466 169.21-237.686 169.21-238.707 176.951-238.707 176.951-237.568 176.953-237.152 176.953-236.738 176.976-219.742 176.976-219.326 190.149-210.364 190.154-209.944 190.206-192.754 190.206-192.334 190.211-191.913 190.268-174.214 190.397-172.267 190.447-156.4 191.527-156.25 191.481-171.919 193.888-171.68 193.95-155.718 195.116-155.497 195.056-171.412 195.038-177.421 203.564-183.149 203.561-183.574 203.48-200.88 203.475-201.305 203.473-201.725 203.387-218.949 203.387-219.369 203.387-219.787 203.298-237.348 203.296-237.827 203.214-254.769 203.214-255.242 203.209-255.721 203.189-259.737 207.959-259.737 207.894-233.515 207.894-232.531 208.735-232.529 208.766-232.513 208.773-232.529 208.791-232.529 208.814-232.122 208.76-232.02 208.821-231.988 208.837-231.631 209.691-231.674 209.653-232.436 209.705-232.54 209.751-231.64 210.787-231.693 210.741-232.593 210.746-232.593 210.787-231.729 216.38-232.011 216.367-232.222 216.376-232.222 216.344-232.911 216.38-232.222 217.403-232.277 217.358-233.177 218.26-233.172 218.356-256.551 219.601-256.519 219.596-256.001 220.499-255.996 219.596-255.999 219.508-234.35 219.508-233.565 220.083-233.563 220.065-233.518 220.185-233.468 220.226-233.563 220.231-233.563 220.187-233.465 220.256-233.436 220.308-233.563 220.408-233.563 220.428-233.175 220.244-232.745 220.506-232.631 220.522-232.668 220.642-232.675 220.637-232.809 220.642-232.809 220.637-232.934 220.762-233.225 220.872-233.181 220.903-232.563 221.897-232.609 223.908-232.711 223.865-233.563 223.872-233.563 223.908-232.838 224.029-232.843 224.035-232.663 226.647-232.795 226.601-233.663 226.615-233.695 226.813-233.695 226.836-233.259 227.815-233.306 227.77-234.206 228.672-234.206 228.717-248.271 237.266-248.271 237.343-246.259 237.279-217.61 238.182-217.61 237.279-217.583 237.925-195.661 237.92-193.268 238.823-193.268 238.825-192.365 239.609-192.372 239.604-192.925 239.891-192.922 239.895-192.022 246.719-192.065 246.716-192.965 247.494-192.511 247.525-192.563 247.525-192.4 248.346-192.404 248.346-193.297 248.353-193.297 249.13-192.861 250.098-194.586 249.316-195.027 250.219-195.027 250.219-197.377 250.205-197.377 250.796-218.858 249.912-218.883 249.907-218.883 250.796-218.883 250.796-234.584C250.796-234.584 257.762-227.231 260.001-226.911 262.24-226.59 265.438-225.31 266.397-227.549 267.356-229.788 266.717-230.108 268.636-231.068 270.554-232.027 273.431-231.388 274.391-231.388 275.213-231.388 276.934-232.309 278.025-232.981 332.473-198.368 374.723-146.274 396.802-84.5548 400.561-74.0451 387.038-66.0742 379.792-74.5633" fill="#BE1567" fill-rule="nonzero" fill-opacity="1" transform="matrix(1.00037 0 0 -1 -73.2387 364.494)"/><path d="M0 0 0.0181828 0.406841-0.00227286 0Z" fill="#BE1567" fill-rule="nonzero" fill-opacity="1" transform="matrix(1.00037 0 0 -1 148.724 597.509)"/></g></g></g></svg>